# xmcd CD database file
#
# Track frame offsets:
#	150
#	21337
#	41507
#	59537
#	76690
#	90622
#	108402
#	132255
#	149850
#	170655
#	192567
#	208777
#
# Disc length: 3062 seconds
#
# Revision: 1
# Processed by: cddbd v1.4PL0 Copyright (c) Steve Scherf et al.
# Submitted via: CDex 1.50beta10
#
DISCID=b20bf40c
DTITLE=Jon Cleary - Moonburn
DYEAR=1999
DGENRE=Blues
TTITLE0=Fools Game
TTITLE1=So Damn Good
TTITLE2=Heavy Under Pressure
TTITLE3=Unnecessarily Mercenary
TTITLE4=Port Street Blues
TTITLE5=Gettin' Crazy Up In Here
TTITLE6=Help Me Somebody
TTITLE7=Would I Lie To You?
TTITLE8=Who's There With You
TTITLE9=Stepping In On Your Thing
TTITLE10=Salty Water
TTITLE11=Moonburn
EXTD=YEAR: 1999
EXTT0=
EXTT1=
EXTT2=
EXTT3=
EXTT4=
EXTT5=
EXTT6=
EXTT7=
EXTT8=
EXTT9=
EXTT10=
EXTT11=
PLAYORDER=
